<?xml version="1.0" encoding="UTF-8"?>
<mxfile host="app.diagrams.net">
  <diagram name="Diagrama de Caso de Uso" id="Z12345678">
    <mxGraphModel dx="1000" dy="1000" grid="1" gridSize="10" guides="1" tooltips="1"
                  connect="1" arrows="1" fold="1" page="1" pageScale="1" pageWidth="827"
                  pageHeight="1169" math="0" shadow="0">
      <root>
        <mxCell id="0"/>
        <mxCell id="1" parent="0"/>
        
<mxCell id="10" value="Atleta" style="shape=umlActor;verticalLabelPosition=bottom;verticalAlign=top;" vertex="1" parent="1">
  <mxGeometry x="20" y="40" width="30" height="60" as="geometry"/>
</mxCell>

<mxCell id="20" value="Inscrever Atleta" style="ellipse;whiteSpace=wrap;html=1;" vertex="1" parent="1">
  <mxGeometry x="200" y="40" width="140" height="40" as="geometry"/>
</mxCell>

<mxCell id="30" style="endArrow=none;" edge="1" parent="1" source="10" target="20">
  <mxGeometry relative="1" as="geometry"/>
</mxCell>

      </root>
    </mxGraphModel>
  </diagram>
</mxfile>
